<svg width="32" height="32" viewBox="0 0 32 32" fill="none" xmlns="http://www.w3.org/2000/svg">
<path d="M9.75565 5.02501C13.8724 4.56491 18.1276 4.56491 22.2443 5.02501C23.7899 5.19776 25.1467 6.03359 26.005 7.24745L15.3333 17.9191L12.0404 14.6262C11.6499 14.2357 11.0168 14.2357 10.6262 14.6262C10.2357 15.0168 10.2357 15.6499 10.6262 16.0405L14.6262 20.0405C15.0168 20.431 15.6499 20.431 16.0404 20.0405L26.861 9.21987C26.891 9.36596 26.9149 9.5143 26.9325 9.66465C27.4248 13.8739 27.4248 18.1261 26.9325 22.3354C26.646 24.7846 24.6795 26.7028 22.2443 26.975C18.1276 27.4351 13.8724 27.4351 9.75564 26.975C7.32047 26.7028 5.35394 24.7846 5.06747 22.3354C4.57517 18.1261 4.57517 13.8739 5.06747 9.66465C5.35394 7.21537 7.32047 5.29718 9.75565 5.02501Z" fill="#008138"/>
</svg>
