<svg width="50" height="56" viewBox="0 0 50 56" fill="none" xmlns="http://www.w3.org/2000/svg">
<path fill-rule="evenodd" clip-rule="evenodd" d="M8.02083 9.47917C8.02083 4.24397 12.2648 0 17.5 0C20.4319 0 23.0529 1.33107 24.7917 3.42188C26.5304 1.33107 29.1514 0 32.0833 0C37.3185 0 41.5625 4.24397 41.5625 9.47917C41.5625 11.6791 40.8131 13.704 39.5556 15.3125H42.2917C46.3187 15.3125 49.5833 18.5771 49.5833 22.6042V26.25C49.5833 27.4581 48.604 28.4375 47.3958 28.4375H27.8542C27.3709 28.4375 26.9792 28.0457 26.9792 27.5625V17.4682C26.1539 16.9398 25.4159 16.2871 24.7917 15.5365C24.1674 16.2871 23.4294 16.9398 22.6042 17.4682V27.5625C22.6042 28.0457 22.2124 28.4375 21.7292 28.4375H2.1875C0.979377 28.4375 0 27.4581 0 26.25V22.6042C0 18.5771 3.26459 15.3125 7.29167 15.3125H10.0277C8.77025 13.704 8.02083 11.6791 8.02083 9.47917ZM22.6042 9.47917C22.6042 6.66021 20.319 4.375 17.5 4.375C14.681 4.375 12.3958 6.66021 12.3958 9.47917C12.3958 12.2981 14.681 14.5833 17.5 14.5833C20.319 14.5833 22.6042 12.2981 22.6042 9.47917ZM26.9792 9.47917C26.9792 12.2981 29.2644 14.5833 32.0833 14.5833C34.9023 14.5833 37.1875 12.2981 37.1875 9.47917C37.1875 6.66021 34.9023 4.375 32.0833 4.375C29.2644 4.375 26.9792 6.66021 26.9792 9.47917Z" fill="white"/>
<path d="M22.6042 33.25C22.6042 32.7668 22.2124 32.375 21.7292 32.375H6.26796C5.0848 32.375 4.07378 33.2275 3.87395 34.3937C3.22631 38.1731 3.22631 42.0352 3.87395 45.8147L4.52819 49.6327C4.96871 52.2034 7.0566 54.1728 9.64869 54.4625L12.7553 54.8097C15.7329 55.1425 18.7209 55.3514 21.7116 55.4364C22.2016 55.4504 22.6042 55.0555 22.6042 54.5653L22.6042 33.25Z" fill="white"/>
<path d="M27.8717 55.4364C27.3818 55.4504 26.9792 55.0555 26.9792 54.5653L26.9792 33.25C26.9792 32.7668 27.3709 32.375 27.8542 32.375H43.3154C44.4985 32.375 45.5095 33.2275 45.7094 34.3937C46.357 38.1731 46.357 42.0352 45.7094 45.8147L45.0551 49.6327C44.6146 52.2034 42.5267 54.1728 39.9346 54.4625L36.828 54.8097C33.8504 55.1425 30.8624 55.3514 27.8717 55.4364Z" fill="white"/>
</svg>
