<svg width="91" height="100" viewBox="0 0 91 100" fill="none" xmlns="http://www.w3.org/2000/svg">
<path fill-rule="evenodd" clip-rule="evenodd" d="M17.3 41.5998H22.1343V25.2798C22.1343 14.4639 30.7919 5.6958 41.4715 5.6958H49.5286C60.2082 5.6958 68.8658 14.4639 68.8658 25.2798V41.5998H73.7001V25.2798C73.7001 11.7599 62.8781 0.799805 49.5286 0.799805H41.4715C28.122 0.799805 17.3 11.7599 17.3 25.2798V41.5998Z" fill="#DCDCDC"/>
<path d="M0.5 51.4739C0.5 46.0205 4.89575 41.5996 10.3182 41.5996H80.6818C86.1042 41.5996 90.5 46.0205 90.5 51.4739V89.3253C90.5 94.7787 86.1042 99.1996 80.6818 99.1996H10.3182C4.89575 99.1996 0.5 94.7787 0.5 89.3253V51.4739Z" fill="#DCDCDC"/>
<path d="M30.4999 70.3996C30.4999 73.0506 28.3509 75.1996 25.6999 75.1996C23.0489 75.1996 20.8999 73.0506 20.8999 70.3996C20.8999 67.7486 23.0489 65.5996 25.6999 65.5996C28.3509 65.5996 30.4999 67.7486 30.4999 70.3996Z" fill="#706F6F"/>
<path d="M49.7001 70.3996C49.7001 73.0506 47.5511 75.1996 44.9001 75.1996C42.2491 75.1996 40.1001 73.0506 40.1001 70.3996C40.1001 67.7486 42.2491 65.5996 44.9001 65.5996C47.5511 65.5996 49.7001 67.7486 49.7001 70.3996Z" fill="#706F6F"/>
<path d="M68.9 70.3996C68.9 73.0506 66.751 75.1996 64.1 75.1996C61.4491 75.1996 59.3 73.0506 59.3 70.3996C59.3 67.7486 61.4491 65.5996 64.1 65.5996C66.751 65.5996 68.9 67.7486 68.9 70.3996Z" fill="#706F6F"/>
</svg>
