<svg width="70" height="70" viewBox="0 0 70 70" fill="none" xmlns="http://www.w3.org/2000/svg">
<path fill-rule="evenodd" clip-rule="evenodd" d="M18.2288 16.0417C18.2288 10.8065 22.4728 6.5625 27.708 6.5625C30.6399 6.5625 33.2609 7.89357 34.9997 9.98438C36.7385 7.89357 39.3594 6.5625 42.2913 6.5625C47.5265 6.5625 51.7705 10.8065 51.7705 16.0417C51.7705 18.2416 51.0211 20.2665 49.7636 21.875H52.4997C56.5267 21.875 59.7913 25.1396 59.7913 29.1667V32.8125C59.7913 34.0206 58.812 35 57.6038 35H38.0622C37.5789 35 37.1872 34.6082 37.1872 34.125V24.0307C36.3619 23.5023 35.6239 22.8496 34.9997 22.099C34.3754 22.8496 33.6374 23.5023 32.8122 24.0307V34.125C32.8122 34.6082 32.4204 35 31.9372 35H12.3955C11.1874 35 10.208 34.0206 10.208 32.8125V29.1667C10.208 25.1396 13.4726 21.875 17.4997 21.875H20.2357C18.9783 20.2665 18.2288 18.2416 18.2288 16.0417ZM32.8122 16.0417C32.8122 13.2227 30.527 10.9375 27.708 10.9375C24.8891 10.9375 22.6038 13.2227 22.6038 16.0417C22.6038 18.8606 24.8891 21.1458 27.708 21.1458C30.527 21.1458 32.8122 18.8606 32.8122 16.0417ZM37.1872 16.0417C37.1872 18.8606 39.4724 21.1458 42.2913 21.1458C45.1103 21.1458 47.3955 18.8606 47.3955 16.0417C47.3955 13.2227 45.1103 10.9375 42.2913 10.9375C39.4724 10.9375 37.1872 13.2227 37.1872 16.0417Z" fill="white"/>
<path d="M32.8122 39.8125C32.8122 39.3293 32.4204 38.9375 31.9372 38.9375H16.476C15.2928 38.9375 14.2818 39.79 14.082 40.9562C13.4343 44.7356 13.4343 48.5977 14.082 52.3772L14.7362 56.1952C15.1767 58.7659 17.2646 60.7353 19.8567 61.025L22.9633 61.3722C25.941 61.705 28.929 61.9139 31.9196 61.9989C32.4096 62.0129 32.8122 61.618 32.8122 61.1278L32.8122 39.8125Z" fill="white"/>
<path d="M38.0798 61.9989C37.5898 62.0129 37.1872 61.618 37.1872 61.1278L37.1872 39.8125C37.1872 39.3293 37.5789 38.9375 38.0622 38.9375H53.5234C54.7065 38.9375 55.7175 39.79 55.9174 40.9562C56.565 44.7356 56.565 48.5977 55.9174 52.3772L55.2631 56.1952C54.8226 58.7659 52.7347 60.7353 50.1426 61.025L47.036 61.3722C44.0584 61.705 41.0704 61.9139 38.0798 61.9989Z" fill="white"/>
</svg>
